<?xml version="1.0" encoding="UTF-8" standalone="no"?>
<svg
   version="1.0"
   width="387.98801pt"
   height="298pt"
   viewBox="0 0 387.98801 298"
   preserveAspectRatio="xMidYMid"
   id="svg8"
   sodipodi:docname="LG.svg"
   inkscape:version="1.4 (86a8ad7, 2024-10-11)"
   xmlns:inkscape="http://www.inkscape.org/namespaces/inkscape"
   xmlns:sodipodi="http://sodipodi.sourceforge.net/DTD/sodipodi-0.dtd"
   xmlns="http://www.w3.org/2000/svg"
   xmlns:svg="http://www.w3.org/2000/svg">
  <defs
     id="defs8" />
  <sodipodi:namedview
     id="namedview8"
     pagecolor="#ffffff"
     bordercolor="#000000"
     borderopacity="0.25"
     inkscape:showpageshadow="2"
     inkscape:pageopacity="0.0"
     inkscape:pagecheckerboard="0"
     inkscape:deskcolor="#d1d1d1"
     inkscape:document-units="pt"
     inkscape:clip-to-page="false"
     inkscape:antialias-rendering="true"
     inkscape:zoom="0.59106445"
     inkscape:cx="255.47129"
     inkscape:cy="71.904172"
     inkscape:window-width="1920"
     inkscape:window-height="1009"
     inkscape:window-x="-8"
     inkscape:window-y="-8"
     inkscape:window-maximized="1"
     inkscape:current-layer="svg8" />
  <metadata
     id="metadata1">
Created by potrace 1.16, written by Peter Selinger 2001-2019
</metadata>
  <g
     transform="matrix(0.1,0,0,-0.1,-320.01199,667)"
     fill="currentColor"
     stroke="none"
     id="g8">
    <path
       d="m 3730,5980 v -690 h 73 c 79,0 177,18 274,51 l 63,21 v 454 454 h 335 335 v -290 c 0,-159 4,-290 9,-290 4,0 59,26 122,58 63,31 201,95 306,142 180,79 191,86 175,101 -9,9 -104,71 -209,139 -106,67 -195,126 -198,131 -4,5 205,9 534,9 h 541 v -129 -128 l 63,-13 c 89,-17 213,-58 279,-91 32,-16 60,-29 63,-29 3,0 5,178 5,395 v 395 H 5115 3730 Z"
       id="path1" />
    <path
       d="m 6620,6055 c 0,-85 2,-155 5,-155 11,0 245,144 245,150 0,7 -235,160 -246,160 -2,0 -4,-70 -4,-155 z"
       id="path2" />
    <path
       d="m 3353,5883 c -77,-112 -107,-173 -133,-264 -24,-90 -27,-229 -5,-314 38,-144 142,-272 275,-337 120,-58 184,-72 345,-71 260,0 416,51 930,303 524,257 697,326 921,370 348,67 631,13 799,-155 65,-65 113,-147 141,-240 22,-71 25,-285 6,-379 -7,-33 -10,-61 -8,-64 6,-6 61,81 96,154 86,176 87,394 5,569 -88,185 -279,333 -510,396 -114,30 -364,38 -501,15 -282,-48 -458,-115 -992,-377 -541,-266 -673,-315 -877,-326 -256,-14 -433,109 -481,336 -25,118 -14,232 37,398 11,36 18,67 16,69 -2,3 -31,-35 -64,-83 z"
       id="path3" />
    <path
       d="m 7045,5950 c -16,-11 -105,-64 -197,-117 -92,-54 -168,-101 -168,-105 0,-8 390,-241 396,-235 2,2 3,110 2,240 l -3,237 z"
       id="path4" />
    <path
       d="m 6090,4775 v -685 h -180 -180 l -2,332 -3,333 -195,117 c -107,65 -198,118 -202,118 -5,0 -7,-291 -6,-647 l 3,-648 588,-3 588,-2 -3,742 -3,743 -29,53 c -16,29 -51,72 -76,96 -69,64 -148,102 -272,130 l -28,6 z"
       id="path5" />
    <path
       d="m 4715,5022 c -99,-48 -186,-91 -192,-95 -10,-6 -13,-102 -13,-423 v -414 h -185 -185 v 350 c 0,193 -4,350 -8,350 -5,0 -53,-7 -108,-15 -54,-8 -143,-15 -196,-15 h -98 v -535 -535 h 590 590 v 710 c 0,391 -3,710 -7,710 -5,-1 -89,-40 -188,-88 z"
       id="path6" />
    <path
       d="m 6903,4692 c -89,-54 -165,-100 -168,-104 -6,-5 290,-189 329,-204 14,-6 16,13 16,200 0,113 -3,206 -7,206 -5,-1 -81,-45 -170,-98 z"
       id="path7" />
    <path
       d="m 3431,4559 c -79,-48 -148,-92 -152,-96 -7,-7 242,-165 314,-200 4,-3 7,84 7,191 0,151 -3,196 -12,195 -7,-1 -78,-41 -157,-90 z"
       id="path8" />
  </g>
</svg>
